<svg width="0" height="0" class="hidden">
  <symbol xmlns="http://www.w3.org/2000/svg" fill="currentColor" viewBox="0 0 24 24" id="headset_mic">
    <path d="M0 0h24v24H0V0z" fill="none"></path>
    <path d="M11.4 1.02C6.62 1.33 3 5.51 3 10.31V20h6v-8H5v-1.71C5 6.45 7.96 3.11 11.79 3 15.76 2.89 19 6.06 19 10v2h-4v8h4v1h-7v2h9V10c0-5.17-4.36-9.32-9.6-8.98z"></path>
  </symbol>
  <symbol xmlns="http://www.w3.org/2000/svg" fill="currentColor" viewBox="0 0 24 24" id="settings">
    <path d="M0 0h24v24H0V0z" fill="none"></path>
    <path d="M19.44 12.99l-.01.02c.04-.33.08-.67.08-1.01 0-.34-.03-.66-.07-.99l.01.02 2.44-1.92-2.43-4.22-2.87 1.16.01.01c-.52-.4-1.09-.74-1.71-1h.01L14.44 2H9.57l-.44 3.07h.01c-.62.26-1.19.6-1.71 1l.01-.01-2.88-1.17-2.44 4.22 2.44 1.92.01-.02c-.04.33-.07.65-.07.99 0 .34.03.68.08 1.01l-.01-.02-2.1 1.65-.33.26 2.43 4.2 2.88-1.15-.02-.04c.53.41 1.1.75 1.73 1.01h-.03L9.58 22h4.85s.03-.18.06-.42l.38-2.65h-.01c.62-.26 1.2-.6 1.73-1.01l-.02.04 2.88 1.15 2.43-4.2s-.14-.12-.33-.26l-2.11-1.66zM12 15.5c-1.93 0-3.5-1.57-3.5-3.5s1.57-3.5 3.5-3.5 3.5 1.57 3.5 3.5-1.57 3.5-3.5 3.5z"></path>
  </symbol>
  <symbol xmlns="http://www.w3.org/2000/svg" fill="currentColor" viewBox="0 -960 960 960" id="cheap">
    <path d="M360-360v-240h240v240H360Zm80-80h80v-80h-80v80Zm-80 320v-80h-80q-33 0-56.5-23.5T200-280v-80h-80v-80h80v-80h-80v-80h80v-80q0-33 23.5-56.5T280-760h80v-80h80v80h80v-80h80v80h80q33 0 56.5 23.5T760-680v80h80v80h-80v80h80v80h-80v80q0 33-23.5 56.5T680-200h-80v80h-80v-80h-80v80h-80Zm320-160v-400H280v400h400ZM480-480Z"></path>
  </symbol>
  <symbol xmlns="http://www.w3.org/2000/svg" fill="currentColor" viewBox="0 -960 960 960" id="help_center">
    <path d="M480-240q21 0 35.5-14.5T530-290q0-21-14.5-35.5T480-340q-21 0-35.5 14.5T430-290q0 21 14.5 35.5T480-240Zm-36-154h74q0-36 8-53t34-43q35-35 49.5-58.5T624-602q0-53-36-85.5T491-720q-55 0-93.5 27T344-618l66 26q7-27 28-43.5t49-16.5q27 0 45 14.5t18 38.5q0 17-11 36t-37 42q-33 29-45.5 55.5T444-394ZM200-120q-33 0-56.5-23.5T120-200v-560q0-33 23.5-56.5T200-840h560q33 0 56.5 23.5T840-760v560q0 33-23.5 56.5T760-120H200Zm0-80h560v-560H200v560Zm0-560v560-560Z"></path>
  </symbol>
  <symbol xmlns="http://www.w3.org/2000/svg" fill="currentColor" viewBox="0 -960 960 960" id="cloud_done">
    <path d="m414-280 226-226-58-58-169 169-84-84-57 57 142 142ZM260-160q-91 0-155.5-63T40-377q0-78 47-139t123-78q25-92 100-149t170-57q117 0 198.5 81.5T760-520q69 8 114.5 59.5T920-340q0 75-52.5 127.5T740-160H260Zm0-80h480q42 0 71-29t29-71q0-42-29-71t-71-29h-60v-80q0-83-58.5-141.5T480-720q-83 0-141.5 58.5T280-520h-20q-58 0-99 41t-41 99q0 58 41 99t99 41Zm220-240Z"></path>
  </symbol>
  <symbol xmlns="http://www.w3.org/2000/svg" fill="currentColor" viewBox="0 -960 960 960" id="storage">
    <path d="M120-160v-160h720v160H120Zm80-40h80v-80h-80v80Zm-80-440v-160h720v160H120Zm80-40h80v-80h-80v80Zm-80 280v-160h720v160H120Zm80-40h80v-80h-80v80Z"></path>
  </symbol>
  <symbol xmlns="http://www.w3.org/2000/svg" fill="currentColor" viewBox="0 -960 960 960" id="device_hub">
    <path d="M120-120v-200h160l160-160v-128q-36-13-58-43.5T360-720q0-50 35-85t85-35q50 0 85 35t35 85q0 38-22 68.5T520-608v128l160 160h160v200H640v-122L480-402 320-242v122H120Z"></path>
  </symbol>
  <symbol xmlns="http://www.w3.org/2000/svg" fill="currentColor" viewBox="0 -960 960 960" id="security">
    <path d="M480-80q-139-35-229.5-159.5T160-516v-244l320-120 320 120v244q0 152-90.5 276.5T480-80Zm0-84q97-30 162-118.5T718-480H480v-315l-240 90v207q0 7 2 18h238v316Z"></path>
  </symbol>
  <symbol xmlns="http://www.w3.org/2000/svg" fill="currentColor" viewBox="0 0 24 24" id="location">
    <path d="M0 0h24v24H0z" fill="none"></path>
    <path d="M12 12c-1.1 0-2-.9-2-2s.9-2 2-2 2 .9 2 2-.9 2-2 2zm0-10c-4.2 0-8 3.22-8 8.2 0 3.32 2.67 7.25 8 11.8 5.33-4.55 8-8.48 8-11.8C20 5.22 16.2 2 12 2z"></path>
  </symbol>
  <symbol xmlns="http://www.w3.org/2000/svg" fill="currentColor" viewBox="0 0 24 24" id="mail">
    <path d="M0 0h24v24H0V0z" fill="none"></path>
    <path d="M22 4H2v16h20V4zm-2 4l-8 5-8-5V6l8 5 8-5v2z"></path>
  </symbol>
  <symbol xmlns="http://www.w3.org/2000/svg" fill="currentColor" viewBox="0 0 24 24" id="phone">
    <path d="M0 0h24v24H0V0z" fill="none"></path>
    <path d="M21 15.46l-5.27-.61-2.52 2.52c-2.83-1.44-5.15-3.75-6.59-6.59l2.53-2.53L8.54 3H3.03C2.45 13.18 10.82 21.55 21 20.97v-5.51z"></path>
  </symbol>
  <symbol xmlns="http://www.w3.org/2000/svg" fill="currentColor" viewBox="0 -960 960 960" id="menu_book">
    <path d="M560-564v-68q33-14 67.5-21t72.5-7q26 0 51 4t49 10v64q-24-9-48.5-13.5T700-600q-38 0-73 9.5T560-564Zm0 220v-68q33-14 67.5-21t72.5-7q26 0 51 4t49 10v64q-24-9-48.5-13.5T700-380q-38 0-73 9t-67 27Zm0-110v-68q33-14 67.5-21t72.5-7q26 0 51 4t49 10v64q-24-9-48.5-13.5T700-490q-38 0-73 9.5T560-454ZM260-320q47 0 91.5 10.5T440-278v-394q-41-24-87-36t-93-12q-36 0-71.5 7T120-692v396q35-12 69.5-18t70.5-6Zm260 42q44-21 88.5-31.5T700-320q36 0 70.5 6t69.5 18v-396q-33-14-68.5-21t-71.5-7q-47 0-93 12t-87 36v394Zm-40 118q-48-38-104-59t-116-21q-42 0-82.5 11T100-198q-21 11-40.5-1T40-234v-482q0-11 5.5-21T62-752q46-24 96-36t102-12q58 0 113.5 15T480-740q51-30 106.5-45T700-800q52 0 102 12t96 36q11 5 16.5 15t5.5 21v482q0 23-19.5 35t-40.5 1q-37-20-77.5-31T700-240q-60 0-116 21t-104 59ZM280-494Z"></path>
  </symbol>
  <symbol xmlns="http://www.w3.org/2000/svg" fill="currentColor" viewBox="0 -960 960 960" id="chat">
    <path d="M240-400h320v-80H240v80Zm0-120h480v-80H240v80Zm0-120h480v-80H240v80ZM80-80v-720q0-33 23.5-56.5T160-880h640q33 0 56.5 23.5T880-800v480q0 33-23.5 56.5T800-240H240L80-80Zm126-240h594v-480H160v525l46-45Zm-46 0v-480 480Z"></path>
  </symbol>
  <symbol xmlns="http://www.w3.org/2000/svg" fill="currentColor" viewBox="0 -960 960 960" id="handshake">
    <path d="M475-160q4 0 8-2t6-4l328-328q12-12 17.5-27t5.5-30q0-16-5.5-30.5T817-607L647-777q-11-12-25.5-17.5T591-800q-15 0-30 5.5T534-777l-11 11 74 75q15 14 22 32t7 38q0 42-28.5 70.5T527-522q-20 0-38.5-7T456-550l-75-74-175 175q-3 3-4.5 6.5T200-435q0 8 6 14.5t14 6.5q4 0 8-2t6-4l136-136 56 56-135 136q-3 3-4.5 6.5T285-350q0 8 6 14t14 6q4 0 8-2t6-4l136-135 56 56-135 136q-3 2-4.5 6t-1.5 8q0 8 6 14t14 6q4 0 7.5-1.5t6.5-4.5l136-135 56 56-136 136q-3 3-4.5 6.5T454-180q0 8 6.5 14t14.5 6Zm-1 80q-37 0-65.5-24.5T375-166q-34-5-57-28t-28-57q-34-5-56.5-28.5T206-336q-38-5-62-33t-24-66q0-20 7.5-38.5T149-506l232-231 131 131q2 3 6 4.5t8 1.5q9 0 15-5.5t6-14.5q0-4-1.5-8t-4.5-6L398-777q-11-12-25.5-17.5T342-800q-15 0-30 5.5T285-777L144-635q-9 9-15 21t-8 24q-2 12 0 24.5t8 23.5l-58 58q-17-23-25-50.5T40-590q2-28 14-54.5T87-692l141-141q24-23 53.5-35t60.5-12q31 0 60.5 12t52.5 35l11 11 11-11q24-23 53.5-35t60.5-12q31 0 60.5 12t52.5 35l169 169q23 23 35 53t12 61q0 31-12 60.5T873-437L545-110q-14 14-32.5 22T474-80Zm-99-560Z"></path>
  </symbol>
  <symbol xmlns="http://www.w3.org/2000/svg" fill="currentColor" viewBox="0 -960 960 960" id="lan">
    <path d="M120-80v-280h120v-160h200v-80H320v-280h320v280H520v80h200v160h120v280H520v-280h120v-80H320v80h120v280H120Zm280-600h160v-120H400v120ZM200-160h160v-120H200v120Zm400 0h160v-120H600v120ZM480-680ZM360-280Zm240 0Z"></path>
  </symbol>
</svg>